<?xml version="1.0" encoding="UTF-8"?><svg xmlns="http://www.w3.org/2000/svg" xmlns:xlink="http://www.w3.org/1999/xlink" stroke-dasharray="none" shape-rendering="auto" font-family="'Dialog'" width="321" text-rendering="auto" fill-opacity="1" contentScriptType="text/ecmascript" color-interpolation="auto" color-rendering="auto" preserveAspectRatio="xMidYMid meet" font-size="12" viewBox="0 0 321 240" fill="black" stroke="black" image-rendering="auto" stroke-miterlimit="10" zoomAndPan="magnify" version="1.0" stroke-linecap="square" stroke-linejoin="miter" contentStyleType="text/css" font-style="normal" height="240" stroke-width="1" stroke-dashoffset="0" font-weight="normal" stroke-opacity="1">
<!--Generated by the Batik Graphics2D SVG Generator-->
<defs id="genericDefs"/>
<g>
<defs id="defs1">
<linearGradient x1="10" x2="10" y1="10" gradientUnits="userSpaceOnUse" y2="230" xlink:type="simple" xlink:actuate="onLoad" id="linearGradient1" xlink:show="other" spreadMethod="pad">
<stop stop-opacity="1" stop-color="white" offset="0%"/>
<stop stop-opacity="1" stop-color="white" offset="100%"/>
</linearGradient>
<clipPath clipPathUnits="userSpaceOnUse" id="clipPath1">
<path d="M10 10 L10 229 L310 229 L310 10 Z"/>
</clipPath>
<clipPath clipPathUnits="userSpaceOnUse" id="clipPath2">
<path d="M105 12 L218 12 L218 39 L105 39 L105 12 Z"/>
</clipPath>
<clipPath clipPathUnits="userSpaceOnUse" id="clipPath3">
<path d="M73 38 L250 38 L250 65 L73 65 L73 38 Z"/>
</clipPath>
<clipPath clipPathUnits="userSpaceOnUse" id="clipPath4">
<path d="M94 64 L228 64 L228 91 L94 91 L94 64 Z"/>
</clipPath>
<clipPath clipPathUnits="userSpaceOnUse" id="clipPath5">
<path d="M83 91 L239 91 L239 114 L83 114 L83 91 Z"/>
</clipPath>
<clipPath clipPathUnits="userSpaceOnUse" id="clipPath6">
<path d="M15 113 L128 113 L128 140 L15 140 L15 113 Z"/>
</clipPath>
<clipPath clipPathUnits="userSpaceOnUse" id="clipPath7">
<path d="M15 138 L144 138 L144 165 L15 165 L15 138 Z"/>
</clipPath>
<clipPath clipPathUnits="userSpaceOnUse" id="clipPath8">
<path d="M15 163 L207 163 L207 190 L15 190 L15 163 Z"/>
</clipPath>
<clipPath clipPathUnits="userSpaceOnUse" id="clipPath9">
<path d="M15 188 L214 188 L214 215 L15 215 L15 188 Z"/>
</clipPath>
<clipPath clipPathUnits="userSpaceOnUse" id="clipPath10">
<path d="M10 90 L312 90 L312 226 L10 226 L10 90 Z"/>
</clipPath>
<clipPath clipPathUnits="userSpaceOnUse" id="clipPath11">
<path d="M9 9 L312 9 L312 231 L9 231 L9 9 Z"/>
</clipPath>
</defs>
<g fill="url(#linearGradient1)" font-family="'Segoe UI'" stroke-linejoin="round" stroke="url(#linearGradient1)" stroke-width="0" stroke-miterlimit="0">
<rect x="10" y="10" clip-path="url(#clipPath1)" width="301" height="220" stroke="none"/>
<text x="106" y="26" clip-path="url(#clipPath2)" fill="black" stroke="none" xml:space="preserve">«component»</text>
<text x="74" y="52" clip-path="url(#clipPath3)" fill="black" stroke="none" xml:space="preserve">«ComputingMachine»</text>
<text x="95" y="78" clip-path="url(#clipPath4)" fill="black" stroke="none" xml:space="preserve">computingNode</text>
<text x="84" font-size="10" y="103" clip-path="url(#clipPath5)" fill="black" stroke="none" xml:space="preserve">«ComputingMachine»</text>
<text x="16" y="127" clip-path="url(#clipPath6)" fill="black" stroke="none" xml:space="preserve">type=Normal </text>
<text x="16" y="152" clip-path="url(#clipPath7)" fill="black" stroke="none" xml:space="preserve">cpu=CPU_quad </text>
<text x="16" y="177" clip-path="url(#clipPath8)" fill="black" stroke="none" xml:space="preserve">memory=Memory_4GB </text>
<text x="16" y="202" clip-path="url(#clipPath9)" fill="black" stroke="none" xml:space="preserve">storage=Storage_500GB </text>
</g>
<g stroke-width="1.1" font-family="'Segoe UI'" stroke-linecap="butt">
<line clip-path="url(#clipPath10)" fill="none" x1="10" x2="310" y1="91" y2="91"/>
<line clip-path="url(#clipPath11)" fill="none" x1="10" x2="311" y1="91" y2="91"/>
<rect x="10" y="10" clip-path="url(#clipPath11)" fill="none" width="300" rx="0" ry="0" height="219"/>
</g>
</g>
</svg>
